# Blender v2.81 (sub 16) OBJ File: 'Avocado.blend'
# www.blender.org
mtllib avocado.mtl
o Body
v 0.261933 0.003573 0.214513
v 0.161844 1.820463 0.132544
v 0.033531 0.003573 0.336898
v 0.020864 1.828697 0.207986
v -0.214513 0.003573 0.261933
v -0.132338 1.832108 0.161593
v -0.336898 0.003573 0.033531
v -0.208019 1.828697 0.020541
v -0.261933 0.003573 -0.214513
v -0.161844 1.820463 -0.132544
v -0.033531 0.003573 -0.336898
v -0.020864 1.812229 -0.207987
v 0.214513 0.003573 -0.261933
v 0.132339 1.808819 -0.161593
v 0.336898 0.003573 -0.033531
v 0.208019 1.812229 -0.020541
v 0.597993 0.220463 0.544945
v 0.797856 0.594704 0.552575
v 0.733231 1.059074 0.586326
v 0.473605 1.474440 0.397589
v 0.052884 1.455686 0.614863
v 0.103396 1.052151 0.933382
v 0.174705 0.549631 0.955459
v 0.037511 0.220463 0.808179
v -0.398816 1.466245 0.471959
v -0.587008 1.026667 0.733675
v -0.550786 0.507945 0.798648
v -0.544945 0.220463 0.597993
v -0.616894 1.499934 0.052587
v -0.933550 0.997548 0.104192
v -0.953634 0.494066 0.174000
v -0.808179 0.220463 0.037511
v -0.473605 1.537017 -0.397589
v -0.733231 0.981853 -0.586326
v -0.797856 0.516123 -0.552575
v -0.597993 0.220463 -0.544945
v -0.052884 1.555771 -0.614863
v -0.103395 0.988775 -0.933382
v -0.174705 0.561195 -0.955459
v -0.037511 0.220463 -0.808179
v 0.398816 1.545211 -0.471959
v 0.587008 1.014260 -0.733675
v 0.550786 0.602881 -0.798648
v 0.544945 0.220463 -0.597993
v 0.616894 1.511523 -0.052587
v 0.933550 1.043379 -0.104192
v 0.953634 0.616761 -0.174000
v 0.808179 0.220463 -0.037511
vt 0.871005 0.083186
vt 0.992787 0.156322
vt 0.983396 0.197713
vt 0.844122 0.201709
vt 0.994904 0.237926
vt 0.874146 0.315212
vt 0.685037 0.518656
vt 0.752671 0.387312
vt 0.793961 0.397254
vt 0.806070 0.529119
vt 0.834221 0.384569
vt 0.915828 0.487343
vt 0.312153 0.498253
vt 0.378342 0.381455
vt 0.419399 0.392654
vt 0.431000 0.511387
vt 0.458596 0.376968
vt 0.541870 0.476550
vt 0.221405 0.617131
vt 0.207608 0.603335
vt 0.207608 0.583823
vt 0.221405 0.570027
vt 0.240916 0.570027
vt 0.254712 0.583823
vt 0.254712 0.603334
vt 0.240916 0.617131
vt 0.184119 0.066528
vt 0.295802 0.001780
vt 0.327582 0.029958
vt 0.274708 0.144881
vt 0.368959 0.034806
vt 0.387191 0.175268
vt 0.604863 0.396376
vt 0.645326 0.396376
vt 0.673939 0.424988
vt 0.673939 0.465451
vt 0.645326 0.494064
vt 0.604863 0.494064
vt 0.576251 0.465452
vt 0.576251 0.424988
vt 0.085594 0.534866
vt 0.148392 0.427745
vt 0.263985 0.523252
vt 0.135380 0.582740
vt 0.163697 0.333971
vt 0.318515 0.421205
vt 0.216694 0.257804
vt 0.379463 0.311193
vt 0.018135 0.522379
vt 0.005721 0.385583
vt 0.001187 0.271451
vt 0.064303 0.180992
vt 0.458598 0.951795
vt 0.460305 0.828095
vt 0.607500 0.854388
vt 0.525061 0.968849
vt 0.428254 0.749658
vt 0.604629 0.737140
vt 0.436968 0.657130
vt 0.607500 0.625050
vt 0.394056 0.974069
vt 0.316210 0.861697
vt 0.258767 0.787383
vt 0.265645 0.662164
vt 0.829880 0.959615
vt 0.831962 0.836104
vt 0.979522 0.863509
vt 0.895938 0.977121
vt 0.801614 0.770218
vt 0.977204 0.766807
vt 0.810021 0.663553
vt 0.979522 0.641319
vt 0.765513 0.981266
vt 0.688962 0.868896
vt 0.631186 0.797283
vt 0.637412 0.657800
vt 0.419919 0.205155
vt 0.543964 0.213476
vt 0.509517 0.360342
vt 0.399081 0.270928
vt 0.621825 0.185795
vt 0.605207 0.361594
vt 0.727787 0.199848
vt 0.744174 0.367649
vt 0.401297 0.139275
vt 0.518225 0.067746
vt 0.616149 0.012788
vt 0.739631 0.028372
vn 0.5574 0.6739 0.4850
vn 0.3179 0.9107 0.2638
vn 0.0523 0.9088 0.4138
vn 0.0602 0.6682 0.7415
vn -0.2440 0.9141 0.3238
vn -0.4787 0.6565 0.5829
vn -0.3817 0.9230 0.0488
vn -0.7557 0.6496 0.0837
vn -0.2809 0.9310 -0.2330
vn -0.5900 0.6550 -0.4721
vn -0.0194 0.9337 -0.3575
vn -0.0725 0.6660 -0.7424
vn 0.2514 0.9290 -0.2716
vn 0.4800 0.6725 -0.5632
vn 0.3931 0.9192 -0.0222
vn 0.7368 0.6742 -0.0505
vn 0.2009 -0.9645 0.1713
vn 0.0209 -0.9645 0.2632
vn -0.1713 -0.9645 0.2009
vn -0.2632 -0.9645 0.0209
vn -0.2009 -0.9645 -0.1713
vn -0.0209 -0.9645 -0.2632
vn 0.1713 -0.9645 -0.2009
vn 0.2632 -0.9645 -0.0209
vn 0.7573 -0.6518 -0.0411
vn 0.5610 -0.6624 0.4964
vn 0.9718 -0.1487 -0.1828
vn 0.8168 -0.1598 0.5543
vn 0.9448 0.3112 -0.1024
vn 0.7342 0.3306 0.5930
vn 0.5111 -0.6545 -0.5571
vn 0.5586 -0.1536 -0.8151
vn 0.5978 0.2910 -0.7470
vn -0.0243 -0.6691 -0.7428
vn -0.1805 -0.1741 -0.9680
vn -0.1087 0.2795 -0.9540
vn -0.5275 -0.6881 -0.4982
vn -0.8092 -0.2011 -0.5520
vn -0.7523 0.2792 -0.5967
vn -0.7132 -0.7005 0.0247
vn -0.9584 -0.2163 0.1863
vn -0.9501 0.2927 0.1077
vn -0.4817 -0.6977 0.5303
vn -0.5441 -0.2080 0.8128
vn -0.5940 0.3161 0.7397
vn 0.0432 -0.6814 0.7306
vn 0.1890 -0.1835 0.9647
vn 0.0996 0.3335 0.9375
usemtl Material
s 1
f 20/1/1 2/2/2 4/3/3 21/4/4
f 21/4/4 4/3/3 6/5/5 25/6/6
f 25/7/6 6/8/5 8/9/7 29/10/8
f 29/10/8 8/9/7 10/11/9 33/12/10
f 33/13/10 10/14/9 12/15/11 37/16/12
f 37/16/12 12/15/11 14/17/13 41/18/14
f 4/19/3 2/20/2 16/21/15 14/22/13 12/23/11 10/24/9 8/25/7 6/26/5
f 41/27/14 14/28/13 16/29/15 45/30/16
f 45/30/16 16/29/15 2/31/2 20/32/1
f 1/33/17 3/34/18 5/35/19 7/36/20 9/37/21 11/38/22 13/39/23 15/40/24
f 15/41/24 48/42/25 17/43/26 1/44/17
f 48/42/25 47/45/27 18/46/28 17/43/26
f 47/45/27 46/47/29 19/48/30 18/46/28
f 46/47/29 45/30/16 20/32/1 19/48/30
f 13/49/23 44/50/31 48/42/25 15/41/24
f 44/50/31 43/51/32 47/45/27 48/42/25
f 43/51/32 42/52/33 46/47/29 47/45/27
f 42/52/33 41/27/14 45/30/16 46/47/29
f 11/53/22 40/54/34 44/55/31 13/56/23
f 40/54/34 39/57/35 43/58/32 44/55/31
f 39/57/35 38/59/36 42/60/33 43/58/32
f 38/59/36 37/16/12 41/18/14 42/60/33
f 9/61/21 36/62/37 40/54/34 11/53/22
f 36/62/37 35/63/38 39/57/35 40/54/34
f 35/63/38 34/64/39 38/59/36 39/57/35
f 34/64/39 33/13/10 37/16/12 38/59/36
f 7/65/20 32/66/40 36/67/37 9/68/21
f 32/66/40 31/69/41 35/70/38 36/67/37
f 31/69/41 30/71/42 34/72/39 35/70/38
f 30/71/42 29/10/8 33/12/10 34/72/39
f 5/73/19 28/74/43 32/66/40 7/65/20
f 28/74/43 27/75/44 31/69/41 32/66/40
f 27/75/44 26/76/45 30/71/42 31/69/41
f 26/76/45 25/7/6 29/10/8 30/71/42
f 3/77/18 24/78/46 28/79/43 5/80/19
f 24/78/46 23/81/47 27/82/44 28/79/43
f 23/81/47 22/83/48 26/84/45 27/82/44
f 22/83/48 21/4/4 25/6/6 26/84/45
f 1/85/17 17/86/26 24/78/46 3/77/18
f 17/86/26 18/87/28 23/81/47 24/78/46
f 18/87/28 19/88/30 22/83/48 23/81/47
f 19/88/30 20/1/1 21/4/4 22/83/48
o Glasses
v -0.829875 0.983050 0.847184
v 0.829875 0.983050 0.847184
v -0.814083 1.477008 0.847184
v 0.814083 1.477008 0.847184
v -0.321259 0.983050 0.847184
v 0.321259 0.983050 0.847184
v 0.321259 1.477008 0.847184
v -0.321259 1.477008 0.847184
v -0.963777 1.170571 0.847184
v 0.963777 1.170571 0.847184
v -0.202523 1.170571 0.847184
v 0.202523 1.170571 0.847184
v 0.963777 1.323789 0.847184
v -0.261891 1.323789 0.847184
v 0.261891 1.323789 0.847184
v -0.963777 1.323789 0.847184
v -0.963777 1.214926 -0.596404
v 0.963777 1.214926 -0.596404
v 0.963777 1.279434 -0.596404
v -0.963777 1.279434 -0.596404
v 0.000000 1.477008 0.847184
v 0.000000 1.170571 0.847184
v 0.000000 1.323789 0.847184
vt 0.207876 0.943061
vt 0.207876 0.836710
vt 0.298471 0.859392
vt 0.298471 0.934065
vt 0.207364 0.836708
vt 0.207364 0.943058
vt 0.297958 0.934063
vt 0.297958 0.859390
vt 0.207876 0.982743
vt 0.298471 0.982743
vt 0.005894 0.856997
vt 0.005894 0.934063
vt 0.116770 0.952054
vt 0.116770 0.836708
vt 0.006406 0.934065
vt 0.006406 0.856999
vt 0.117282 0.836710
vt 0.117282 0.952056
vt 0.117282 0.982743
vt 0.143509 0.606332
vt 0.181651 0.606332
vt 0.181138 0.606332
vt 0.142996 0.606332
vt 0.116770 0.982740
vt 0.207364 0.982740
vt 0.297958 0.982740
vn 0.0000 0.0000 1.0000
vn 0.5452 0.0000 0.8383
vn -0.5452 0.0000 0.8383
vn -0.5212 0.0000 0.8534
vn 0.5212 0.0000 0.8534
vn 1.0000 0.0000 0.0000
vn -1.0000 0.0000 0.0000
usemtl Material
s 1
f 63/89/49 61/90/50 52/91/49 55/92/49
f 64/93/51 62/94/49 56/95/49 51/96/49
f 71/97/49 63/89/49 55/92/49 69/98/49
f 49/99/49 53/100/49 59/101/49 57/102/52
f 54/103/49 50/104/49 58/105/53 60/106/49
f 70/107/49 60/106/49 63/89/49 71/97/49
f 57/102/52 59/101/49 62/94/49 64/93/51
f 60/106/49 58/105/53 61/90/50 63/89/49
f 61/90/50 58/105/53 66/108/54 67/109/54
f 57/102/52 64/93/51 68/110/55 65/111/55
f 59/101/49 70/112/49 71/113/49 62/94/49
f 62/94/49 71/113/49 69/114/49 56/95/49
